<svg width="30" height="13" viewBox="0 0 30 13" fill="none" xmlns="http://www.w3.org/2000/svg">
<g clip-path="url(#clip0_6407_7026)">
<g filter="url(#filter0_d_6407_7026)">
<path d="M27.0922 13H2.90922C1.30213 13 0 11.723 0 10.1468V2.85318C0 1.27705 1.30213 0 2.90922 0H27.0922C28.6979 0 30.0014 1.27705 30.0014 2.85318V10.1482C30 11.723 28.6979 13 27.0922 13Z" fill="#9603AE"/>
</g>
<path d="M12.3242 5.34205L10.5469 8.25505L10.0164 5.37961L8.1426 5.40883L6.12274 8.6557L5.31139 9.11198L6.46033 6.92515L5.48586 5.15843H8.58089L9.90997 3.32632V4.50043H10.5341V1.44971L8.12132 4.45174H3.95394L5.50288 6.95992L3.53125 10.5309L6.8887 9.22466L8.64898 6.33949L9.16813 9.18849L11.0603 9.15789L13.4376 5.32397L12.3242 5.34205Z" fill="white"/>
<path d="M18.1887 6.10732L18.7277 5.23926L14.4469 5.30881L12.0625 9.14134L16.3902 9.07179L16.9277 8.20512L13.7618 8.2552L14.1831 7.57773L17.1348 7.52904L17.6058 6.77088L14.654 6.81818L15.0682 6.1574L18.1887 6.10732Z" fill="white"/>
<path d="M26.1414 5.11965L23.1669 8.05908L24.0123 5.15443L22.5911 5.17668L19.7783 8.11333L20.4677 5.21146L19.2733 5.23094L18.4492 9.03982L20.0152 9.01339L22.635 6.24089L21.7726 8.98556L23.3513 8.96053L27.3357 5.10156L26.1414 5.11965Z" fill="white"/>
</g>
<defs>
<filter id="filter0_d_6407_7026" x="-4" y="0" width="38.002" height="21" filterUnits="userSpaceOnUse" color-interpolation-filters="sRGB">
<feFlood flood-opacity="0" result="BackgroundImageFix"/>
<feColorMatrix in="SourceAlpha" type="matrix" values="0 0 0 0 0 0 0 0 0 0 0 0 0 0 0 0 0 0 127 0" result="hardAlpha"/>
<feOffset dy="4"/>
<feGaussianBlur stdDeviation="2"/>
<feComposite in2="hardAlpha" operator="out"/>
<feColorMatrix type="matrix" values="0 0 0 0 0 0 0 0 0 0 0 0 0 0 0 0 0 0 0.25 0"/>
<feBlend mode="normal" in2="BackgroundImageFix" result="effect1_dropShadow_6407_7026"/>
<feBlend mode="normal" in="SourceGraphic" in2="effect1_dropShadow_6407_7026" result="shape"/>
</filter>
<clipPath id="clip0_6407_7026">
<rect width="30" height="13" fill="white"/>
</clipPath>
</defs>
</svg>
